<svg width="361" height="311" viewBox="0 0 361 311" fill="none" xmlns="http://www.w3.org/2000/svg">
<path d="M21.7477 5.28H31.4677V19H30.2677V6.4H22.9477V19H21.7477V5.28ZM48.9186 17.32C48.9186 17.5067 48.9786 17.6667 49.0986 17.8C49.2319 17.92 49.3853 17.98 49.5586 17.98C49.8253 17.98 50.0186 17.8667 50.1386 17.64L51.0186 18.3C50.9119 18.5267 50.7253 18.72 50.4586 18.88C50.1919 19.0267 49.8919 19.1 49.5586 19.1C49.0253 19.1 48.5853 18.9333 48.2386 18.6C47.8919 18.2667 47.7186 17.8333 47.7186 17.3V14.62H42.1986V19H40.9786L40.9586 11.88C40.9586 10.8267 40.6786 10.0533 40.1186 9.56L40.9186 8.76C41.2386 8.96 41.5253 9.28 41.7786 9.72C42.0319 10.1467 42.1586 10.6067 42.1586 11.1V13.52H47.7186V9H48.9186V17.32ZM71.4758 6.22C71.2091 6.22 71.0091 6.24 70.8758 6.28C70.7558 6.30667 70.6491 6.36667 70.5558 6.46C70.4758 6.54 70.4024 6.65333 70.3358 6.8C70.2824 6.93333 70.2558 7.06 70.2558 7.18L69.1558 7.16C69.1824 6.53333 69.3824 6.03333 69.7558 5.66C69.9558 5.47333 70.1891 5.34 70.4558 5.26C70.7358 5.16667 71.0824 5.11333 71.4958 5.1H75.8958C76.6558 5.1 77.3424 5.25333 77.9558 5.56C78.5691 5.85333 79.0491 6.27333 79.3958 6.82C79.7558 7.36667 79.9358 8 79.9358 8.72C79.9358 9.38667 79.7958 9.96667 79.5158 10.46C79.2491 10.94 78.8824 11.26 78.4158 11.42C78.4024 11.42 78.3624 11.44 78.2958 11.48C78.2424 11.5067 78.0824 11.56 77.8158 11.64C77.8958 11.6667 77.9891 11.6933 78.0958 11.72C78.2158 11.7467 78.3358 11.7867 78.4558 11.84C79.1224 12.1467 79.6424 12.6133 80.0158 13.24C80.3891 13.8533 80.5758 14.5667 80.5758 15.38C80.5758 16.6867 80.0891 17.6533 79.1158 18.28C78.1558 18.8933 76.7891 19.2 75.0158 19.2C73.8958 19.2 73.0691 19.1667 72.5358 19.1L71.4758 18.98V6.22ZM75.3558 18.1C78.0358 18.1 79.3758 17.18 79.3758 15.34C79.3758 14.3933 79.0558 13.6533 78.4158 13.12C77.7758 12.5733 76.9758 12.3 76.0158 12.3H74.1158V11.2H75.8758C76.7424 11.2 77.4358 10.98 77.9558 10.54C78.4758 10.1 78.7358 9.48667 78.7358 8.7C78.7358 7.92667 78.5024 7.33333 78.0358 6.92C77.5824 6.49333 76.9624 6.26 76.1758 6.22H72.6758V18L74.6358 18.08L75.3558 18.1ZM91.678 10.1H87.858V9H96.698V10.1H92.878V19H91.678V10.1ZM122.135 19.46C120.855 19.46 119.695 19.14 118.655 18.5C117.628 17.8467 116.822 16.9733 116.235 15.88C115.648 14.7733 115.355 13.5733 115.355 12.28C115.355 10.9467 115.662 9.70667 116.275 8.56C116.888 7.4 117.722 6.48 118.775 5.8C119.828 5.12 120.988 4.78 122.255 4.78C123.042 4.78 123.795 4.9 124.515 5.14C125.248 5.36667 125.842 5.70667 126.295 6.16C126.762 6.61333 126.995 7.16 126.995 7.8C126.995 8.32 126.808 8.76667 126.435 9.14C126.075 9.5 125.642 9.68 125.135 9.68C124.735 9.68 124.355 9.54667 123.995 9.28L124.695 8.4C124.868 8.50667 125.022 8.56 125.155 8.56C125.328 8.56 125.475 8.48667 125.595 8.34C125.715 8.19333 125.775 8.00667 125.775 7.78C125.775 7.39333 125.588 7.06 125.215 6.78C124.855 6.5 124.402 6.28667 123.855 6.14C123.308 5.99333 122.782 5.92 122.275 5.92C121.195 5.92 120.215 6.21333 119.335 6.8C118.468 7.37333 117.788 8.14667 117.295 9.12C116.802 10.0933 116.555 11.1467 116.555 12.28C116.555 13.3733 116.788 14.3867 117.255 15.32C117.735 16.24 118.395 16.9733 119.235 17.52C120.088 18.0533 121.062 18.32 122.155 18.32C123.115 18.32 124.008 18.1067 124.835 17.68C125.675 17.24 126.355 16.64 126.875 15.88L127.795 16.52C127.142 17.48 126.315 18.2133 125.315 18.72C124.315 19.2133 123.255 19.46 122.135 19.46ZM139.957 8.84C140.877 8.84 141.657 9.07333 142.297 9.54C142.95 9.99333 143.437 10.6067 143.757 11.38C144.09 12.1533 144.257 13.0133 144.257 13.96C144.257 14.9867 144.063 15.8933 143.677 16.68C143.29 17.4667 142.73 18.0867 141.997 18.54C141.263 18.98 140.39 19.2 139.377 19.2C139.043 19.2 138.25 19.1133 136.997 18.94V24.2H135.857V11.96C135.857 10.9067 135.577 10.1333 135.017 9.64L135.817 8.84C136.043 9 136.263 9.22 136.477 9.5C136.69 9.78 136.843 10.0867 136.937 10.42C137.51 9.36667 138.517 8.84 139.957 8.84ZM139.277 18.12C140.53 18.12 141.47 17.76 142.097 17.04C142.737 16.3067 143.057 15.3133 143.057 14.06C143.057 12.8733 142.783 11.8867 142.237 11.1C141.703 10.3133 140.957 9.92 139.997 9.92C139.237 9.92 138.557 10.1533 137.957 10.62C137.37 11.0867 137.05 11.6933 136.997 12.44V17.94C138.223 18.06 138.983 18.12 139.277 18.12ZM173.418 12.24C172.752 13.0133 172.058 13.5467 171.338 13.84C170.618 14.1333 169.832 14.28 168.978 14.28C167.738 14.28 166.778 13.9467 166.098 13.28C165.432 12.6 165.098 11.6067 165.098 10.3L165.118 7.58L165.098 7.06C165.085 6.79333 165.018 6.58 164.898 6.42C164.778 6.24667 164.612 6.16 164.398 6.16C164.198 6.16 164.025 6.22 163.878 6.34C163.732 6.44667 163.625 6.57333 163.558 6.72L162.638 6.1C162.772 5.80667 162.992 5.55333 163.298 5.34C163.605 5.12667 163.965 5.02 164.378 5.02C164.938 5.02 165.392 5.20667 165.738 5.58C166.085 5.94 166.272 6.42 166.298 7.02L166.318 7.54V10.68C166.318 11.5333 166.558 12.16 167.038 12.56C167.532 12.9467 168.252 13.14 169.198 13.14C170.052 13.14 170.852 12.9467 171.598 12.56C172.345 12.16 172.952 11.6067 173.418 10.9V5.32H174.618V19H173.418V12.24ZM186.556 10.1H182.736V9H191.576V10.1H187.756V19H186.556V10.1ZM211.113 5.28H220.833V19H219.633V6.4H212.313V19H211.113V5.28ZM232.784 10.1H228.964V9H237.804V10.1H233.984V19H232.784V10.1ZM263.241 19.46C261.961 19.46 260.801 19.14 259.761 18.5C258.735 17.8467 257.928 16.9733 257.341 15.88C256.755 14.7733 256.461 13.5733 256.461 12.28C256.461 10.9467 256.768 9.70667 257.381 8.56C257.995 7.4 258.828 6.48 259.881 5.8C260.935 5.12 262.095 4.78 263.361 4.78C264.148 4.78 264.901 4.9 265.621 5.14C266.355 5.36667 266.948 5.70667 267.401 6.16C267.868 6.61333 268.101 7.16 268.101 7.8C268.101 8.32 267.915 8.76667 267.541 9.14C267.181 9.5 266.748 9.68 266.241 9.68C265.841 9.68 265.461 9.54667 265.101 9.28L265.801 8.4C265.975 8.50667 266.128 8.56 266.261 8.56C266.435 8.56 266.581 8.48667 266.701 8.34C266.821 8.19333 266.881 8.00667 266.881 7.78C266.881 7.39333 266.695 7.06 266.321 6.78C265.961 6.5 265.508 6.28667 264.961 6.14C264.415 5.99333 263.888 5.92 263.381 5.92C262.301 5.92 261.321 6.21333 260.441 6.8C259.575 7.37333 258.895 8.14667 258.401 9.12C257.908 10.0933 257.661 11.1467 257.661 12.28C257.661 13.3733 257.895 14.3867 258.361 15.32C258.841 16.24 259.501 16.9733 260.341 17.52C261.195 18.0533 262.168 18.32 263.261 18.32C264.221 18.32 265.115 18.1067 265.941 17.68C266.781 17.24 267.461 16.64 267.981 15.88L268.901 16.52C268.248 17.48 267.421 18.2133 266.421 18.72C265.421 19.2133 264.361 19.46 263.241 19.46ZM281.118 19.32C280.198 19.32 279.392 19.08 278.698 18.6C278.018 18.12 277.492 17.4867 277.118 16.7C276.758 15.9133 276.578 15.0667 276.578 14.16L276.598 12.8C276.598 11.48 276.765 10.24 277.098 9.08C277.432 7.90667 278.132 6.99333 279.198 6.34C279.665 6.06 280.152 5.85333 280.658 5.72C281.178 5.57333 281.798 5.42667 282.518 5.28C282.932 5.21333 283.218 5.13333 283.378 5.04C283.538 4.93333 283.612 4.74667 283.598 4.48L284.638 4.4C284.678 4.89333 284.558 5.31333 284.278 5.66C284.092 5.87333 283.892 6.02667 283.678 6.12C283.465 6.2 283.185 6.27333 282.838 6.34C281.638 6.58 280.732 6.84667 280.118 7.14C279.505 7.42 279.025 7.85333 278.678 8.44C278.332 9.02667 278.052 9.88667 277.838 11.02C278.225 10.4467 278.732 10.02 279.358 9.74C279.985 9.46 280.625 9.32 281.278 9.32C282.012 9.32 282.698 9.51333 283.338 9.9C283.978 10.2867 284.492 10.86 284.878 11.62C285.265 12.3667 285.458 13.26 285.458 14.3C285.458 15.2867 285.258 16.16 284.858 16.92C284.472 17.68 283.945 18.2733 283.278 18.7C282.625 19.1133 281.905 19.32 281.118 19.32ZM284.258 14.2C284.258 13.5467 284.145 12.9333 283.918 12.36C283.692 11.7867 283.345 11.3267 282.878 10.98C282.425 10.62 281.872 10.44 281.218 10.44C280.698 10.44 280.185 10.5667 279.678 10.82C279.185 11.0733 278.778 11.42 278.458 11.86C277.952 12.5533 277.725 13.32 277.778 14.16C277.858 15.4667 278.165 16.4667 278.698 17.16C279.232 17.8533 280.072 18.2 281.218 18.2C281.858 18.2 282.405 18.0133 282.858 17.64C283.325 17.2533 283.672 16.7533 283.898 16.14C284.138 15.5267 284.258 14.88 284.258 14.2ZM306.503 6.22C306.236 6.22 306.036 6.24 305.903 6.28C305.783 6.30667 305.676 6.36667 305.583 6.46C305.503 6.54 305.43 6.65333 305.363 6.8C305.31 6.93333 305.283 7.06 305.283 7.18L304.183 7.16C304.21 6.53333 304.41 6.03333 304.783 5.66C304.983 5.47333 305.216 5.34 305.483 5.26C305.763 5.16667 306.11 5.11333 306.523 5.1H310.923C311.683 5.1 312.37 5.25333 312.983 5.56C313.596 5.85333 314.076 6.27333 314.423 6.82C314.783 7.36667 314.963 8 314.963 8.72C314.963 9.38667 314.823 9.96667 314.543 10.46C314.276 10.94 313.91 11.26 313.443 11.42C313.43 11.42 313.39 11.44 313.323 11.48C313.27 11.5067 313.11 11.56 312.843 11.64C312.923 11.6667 313.016 11.6933 313.123 11.72C313.243 11.7467 313.363 11.7867 313.483 11.84C314.15 12.1467 314.67 12.6133 315.043 13.24C315.416 13.8533 315.603 14.5667 315.603 15.38C315.603 16.6867 315.116 17.6533 314.143 18.28C313.183 18.8933 311.816 19.2 310.043 19.2C308.923 19.2 308.096 19.1667 307.563 19.1L306.503 18.98V6.22ZM310.383 18.1C313.063 18.1 314.403 17.18 314.403 15.34C314.403 14.3933 314.083 13.6533 313.443 13.12C312.803 12.5733 312.003 12.3 311.043 12.3H309.143V11.2H310.903C311.77 11.2 312.463 10.98 312.983 10.54C313.503 10.1 313.763 9.48667 313.763 8.7C313.763 7.92667 313.53 7.33333 313.063 6.92C312.61 6.49333 311.99 6.26 311.203 6.22H307.703V18L309.663 18.08L310.383 18.1ZM327.99 19.12C326.47 19.12 325.297 18.7 324.47 17.86C323.643 17.0067 323.23 15.8 323.23 14.24C323.23 13.16 323.423 12.2067 323.81 11.38C324.197 10.5533 324.737 9.91333 325.43 9.46C326.123 8.99333 326.923 8.76 327.83 8.76C328.51 8.76 329.123 8.89333 329.67 9.16C330.217 9.42667 330.643 9.79333 330.95 10.26C331.27 10.7133 331.43 11.2267 331.43 11.8H330.31C330.31 11.2267 330.083 10.76 329.63 10.4C329.177 10.0267 328.59 9.84 327.87 9.84C326.817 9.84 325.977 10.24 325.35 11.04C324.737 11.84 324.43 12.9133 324.43 14.26C324.43 15.4867 324.737 16.4267 325.35 17.08C325.963 17.72 326.843 18.04 327.99 18.04C328.483 18.04 328.977 17.9733 329.47 17.84C329.963 17.6933 330.523 17.4533 331.15 17.12L331.67 17.96C330.537 18.7333 329.31 19.12 327.99 19.12Z" fill="#BA9845"/>
<path d="M315.277 52.2L315.241 50.85C315.241 50.73 315.247 50.634 315.259 50.562C315.295 50.562 315.421 50.532 315.637 50.472C315.997 50.388 316.237 50.346 316.357 50.346C316.489 50.346 316.597 50.364 316.681 50.4C316.825 50.496 316.903 51.33 316.915 52.902C316.927 54.474 316.933 55.686 316.933 56.538L316.915 60.732L316.951 61.92C316.951 62.64 316.705 63 316.213 63C315.805 63 315.553 62.976 315.457 62.928C315.361 62.868 315.313 62.712 315.313 62.46L315.277 52.2Z" fill="#BA9845"/>
<path d="M42.8353 110.506L43.6093 110.416C43.9693 110.416 44.1493 110.524 44.1493 110.74C44.1493 111.232 44.0593 111.568 43.8793 111.748C43.6993 111.916 43.3933 112 42.9613 112H37.7593C37.2313 112 36.9673 111.958 36.9673 111.874C36.9673 111.79 37.3393 111.184 38.0833 110.056C38.8393 108.916 39.6133 107.614 40.4053 106.15C41.1973 104.674 41.5933 103.6 41.5933 102.928C41.5933 102.256 41.4133 101.722 41.0533 101.326C40.6933 100.93 40.2433 100.732 39.7033 100.732C39.1633 100.732 38.4133 100.948 37.4533 101.38C37.4413 101.392 37.3993 101.368 37.3273 101.308C37.1233 101.116 37.0213 100.882 37.0213 100.606C37.0213 100.258 37.3813 99.934 38.1013 99.634C38.8333 99.334 39.4873 99.184 40.0633 99.184C41.1073 99.184 41.8933 99.46 42.4213 100.012C42.9613 100.552 43.2313 101.26 43.2313 102.136C43.2313 103 42.9733 103.972 42.4573 105.052C41.9533 106.12 41.3173 107.242 40.5493 108.418C39.7813 109.594 39.3493 110.278 39.2533 110.47C39.3973 110.494 39.9913 110.506 41.0353 110.506H42.8353ZM90.388 112.666C90.148 112.666 89.944 112.576 89.776 112.396C89.62 112.228 89.542 112.078 89.542 111.946C89.542 111.814 89.554 111.7 89.578 111.604C92.434 111.508 93.862 110.392 93.862 108.256C93.862 107.14 93.292 106.33 92.152 105.826C91.672 105.61 91.426 105.442 91.414 105.322C91.522 105.154 91.756 104.854 92.116 104.422C92.488 103.99 92.782 103.576 92.998 103.18C93.226 102.784 93.34 102.364 93.34 101.92C93.34 101.476 93.184 101.11 92.872 100.822C92.56 100.534 92.104 100.39 91.504 100.39C91.3 100.39 90.958 100.45 90.478 100.57C89.998 100.69 89.722 100.75 89.65 100.75C89.578 100.75 89.464 100.696 89.308 100.588C89.164 100.468 89.092 100.348 89.092 100.228C89.092 100.024 89.398 99.808 90.01 99.58C90.634 99.34 91.264 99.22 91.9 99.22C92.884 99.22 93.67 99.424 94.258 99.832C94.846 100.228 95.14 100.78 95.14 101.488C95.14 101.908 95.038 102.34 94.834 102.784C94.63 103.216 94.414 103.564 94.186 103.828C93.958 104.08 93.718 104.326 93.466 104.566L93.088 104.926C93.088 104.998 93.136 105.064 93.232 105.124C93.34 105.184 93.43 105.232 93.502 105.268C94.15 105.592 94.666 106.024 95.05 106.564C95.446 107.092 95.644 107.704 95.644 108.4C95.644 109.732 95.134 110.764 94.114 111.496C93.106 112.228 91.864 112.618 90.388 112.666ZM139.804 99.472C139.804 100.612 139.792 102.49 139.768 105.106C139.816 105.166 139.948 105.196 140.164 105.196H140.596C140.992 105.196 141.19 105.298 141.19 105.502C141.19 106.03 141.148 106.318 141.064 106.366C140.992 106.402 140.842 106.42 140.614 106.42C140.386 106.42 140.176 106.426 139.984 106.438C139.804 106.438 139.714 106.468 139.714 106.528L139.732 108.526C139.732 109.534 139.714 110.32 139.678 110.884C139.642 111.436 139.558 111.76 139.426 111.856C139.294 111.952 139.066 112 138.742 112C138.43 112 138.25 111.976 138.202 111.928C138.13 111.856 138.094 111.508 138.094 110.884V110.56C138.094 110.464 138.094 110.296 138.094 110.056L138.13 106.852L138.112 106.402C137.788 106.378 137.29 106.366 136.618 106.366L134.044 106.348C133.876 106.348 133.726 106.336 133.594 106.312C133.462 106.276 133.306 106.162 133.126 105.97C132.958 105.766 132.868 105.628 132.856 105.556C132.856 105.472 132.892 105.382 132.964 105.286C133.048 105.178 133.156 105.052 133.288 104.908C133.432 104.764 133.576 104.608 133.72 104.44C133.864 104.26 134.17 103.918 134.638 103.414C135.118 102.91 135.478 102.52 135.718 102.244C137.518 100.168 138.652 99.13 139.12 99.13C139.6 99.13 139.828 99.244 139.804 99.472ZM136.222 105.178L137.554 105.214C137.866 105.214 138.064 105.142 138.148 104.998L138.166 103.432V102.154C138.166 102.022 138.172 101.788 138.184 101.452C138.208 101.116 138.214 100.948 138.202 100.948C137.602 101.692 137.122 102.244 136.762 102.604C136.402 102.964 135.976 103.432 135.484 104.008C135.004 104.572 134.71 104.95 134.602 105.142C134.71 105.166 135.25 105.178 136.222 105.178ZM179.396 104.53L179.45 103.558C179.618 101.602 179.72 100.462 179.756 100.138C179.804 99.802 179.894 99.604 180.026 99.544C180.23 99.448 181.058 99.4 182.51 99.4C183.974 99.4 184.706 99.526 184.706 99.778C184.706 100.654 184.418 101.092 183.842 101.092H180.872C180.8 101.272 180.746 101.626 180.71 102.154C180.686 102.67 180.662 103.03 180.638 103.234C180.626 103.438 180.614 103.654 180.602 103.882C180.626 103.906 180.872 103.96 181.34 104.044C181.808 104.116 182.09 104.164 182.186 104.188C182.978 104.428 183.668 104.848 184.256 105.448C184.844 106.036 185.138 106.834 185.138 107.842C185.138 109.066 184.61 110.182 183.554 111.19C182.498 112.186 181.328 112.684 180.044 112.684C179.588 112.684 179.36 112.312 179.36 111.568C179.372 111.568 179.39 111.568 179.414 111.568C180.422 111.568 181.334 111.232 182.15 110.56C182.966 109.876 183.374 109.084 183.374 108.184C183.374 107.284 183.074 106.558 182.474 106.006C181.874 105.442 181.142 105.13 180.278 105.07C180.23 105.07 180.152 105.076 180.044 105.088C179.948 105.088 179.87 105.088 179.81 105.088C179.75 105.076 179.684 105.052 179.612 105.016C179.468 104.968 179.396 104.806 179.396 104.53ZM227.782 99.058C227.842 99.022 227.926 99.004 228.034 99.004C228.154 99.004 228.31 99.1 228.502 99.292C228.706 99.484 228.808 99.628 228.808 99.724C228.808 99.82 228.79 99.886 228.754 99.922C226.426 101.962 225.262 104.02 225.262 106.096C226.15 105.268 227.116 104.854 228.16 104.854C229.204 104.854 230.032 105.19 230.644 105.862C231.268 106.522 231.58 107.374 231.58 108.418C231.58 109.306 231.304 110.14 230.752 110.92C230.464 111.304 230.068 111.616 229.564 111.856C229.06 112.096 228.478 112.216 227.818 112.216C226.474 112.216 225.418 111.766 224.65 110.866C223.894 109.954 223.516 108.712 223.516 107.14C223.516 105.556 223.918 104.032 224.722 102.568C225.538 101.104 226.558 99.934 227.782 99.058ZM227.926 106.186C227.422 106.186 226.948 106.318 226.504 106.582C226.06 106.834 225.766 107.098 225.622 107.374C225.49 107.638 225.424 107.896 225.424 108.148C225.424 108.94 225.646 109.594 226.09 110.11C226.546 110.626 227.128 110.884 227.836 110.884C228.544 110.884 229.114 110.656 229.546 110.2C229.99 109.744 230.212 109.18 230.212 108.508C230.212 107.836 230.014 107.284 229.618 106.852C229.234 106.408 228.67 106.186 227.926 106.186ZM273.554 101.092L270.782 101.11C270.314 101.11 269.87 101.104 269.45 101.092H268.838C268.646 101.092 268.52 101.056 268.46 100.984C268.4 100.912 268.37 100.672 268.37 100.264C268.37 99.844 268.406 99.61 268.478 99.562C268.658 99.454 269.702 99.4 271.61 99.4C273.518 99.4 274.748 99.406 275.3 99.418C275.18 100.162 274.82 101.686 274.22 103.99C273.632 106.282 273.248 107.728 273.068 108.328C272.876 108.94 272.648 109.72 272.384 110.668C272.12 111.616 271.952 112.138 271.88 112.234C271.82 112.342 271.712 112.396 271.556 112.396C271.412 112.396 271.136 112.294 270.728 112.09C270.728 111.874 270.83 111.37 271.034 110.578C272.138 106.702 272.978 103.54 273.554 101.092ZM316.762 112.216C315.73 112.216 314.89 111.934 314.242 111.37C313.606 110.794 313.288 110.074 313.288 109.21C313.288 108.334 313.486 107.62 313.882 107.068C314.278 106.504 314.83 105.976 315.538 105.484C314.986 105.076 314.548 104.644 314.224 104.188C313.912 103.732 313.696 103.09 313.576 102.262C313.576 101.362 313.924 100.63 314.62 100.066C315.316 99.502 316.084 99.208 316.924 99.184C317.86 99.184 318.622 99.418 319.21 99.886C319.81 100.354 320.11 101.02 320.11 101.884C320.11 102.556 319.912 103.174 319.516 103.738C319.132 104.29 318.64 104.746 318.04 105.106C318.088 105.142 318.142 105.178 318.202 105.214C318.262 105.238 318.322 105.268 318.382 105.304C319.738 106.24 320.428 107.356 320.452 108.652C320.452 109.684 320.092 110.536 319.372 111.208C318.664 111.88 317.794 112.216 316.762 112.216ZM316.474 106.168L315.97 106.564C315.238 107.2 314.86 107.914 314.836 108.706C314.848 109.45 315.034 110.02 315.394 110.416C315.766 110.812 316.252 111.01 316.852 111.01C317.452 111.01 317.956 110.83 318.364 110.47C318.784 110.098 318.994 109.654 318.994 109.138C318.994 108.058 318.154 107.068 316.474 106.168ZM317.14 104.458C317.512 104.146 317.776 103.918 317.932 103.774C318.088 103.618 318.262 103.378 318.454 103.054C318.646 102.73 318.742 102.358 318.742 101.938C318.742 101.518 318.598 101.146 318.31 100.822C318.022 100.486 317.608 100.318 317.068 100.318C316.54 100.318 316.096 100.456 315.736 100.732C315.376 101.008 315.196 101.38 315.196 101.848C315.196 102.316 315.286 102.694 315.466 102.982C315.658 103.27 315.946 103.582 316.33 103.918C316.714 104.254 316.984 104.434 317.14 104.458Z" fill="#BA9845"/>
<path d="M36.8924 161.342C36.8444 161.378 36.7604 161.396 36.6404 161.396C36.5204 161.396 36.3584 161.3 36.1544 161.108C35.9624 160.916 35.8664 160.772 35.8664 160.676C35.8664 160.58 35.8844 160.514 35.9204 160.478C38.2484 158.438 39.4124 156.38 39.4124 154.304C38.5244 155.132 37.5584 155.546 36.5144 155.546C35.4704 155.546 34.6364 155.216 34.0124 154.556C33.4004 153.884 33.0944 153.026 33.0944 151.982C33.0944 151.094 33.3764 150.26 33.9404 149.48C34.2164 149.096 34.6064 148.784 35.1104 148.544C35.6144 148.304 36.1964 148.184 36.8564 148.184C38.2004 148.184 39.2504 148.64 40.0064 149.552C40.7744 150.452 41.1584 151.694 41.1584 153.278C41.1584 154.85 40.7504 156.368 39.9344 157.832C39.1304 159.296 38.1164 160.466 36.8924 161.342ZM36.7484 154.214C37.2524 154.214 37.7264 154.088 38.1704 153.836C38.6144 153.572 38.9024 153.308 39.0344 153.044C39.1784 152.768 39.2504 152.504 39.2504 152.252C39.2504 151.46 39.0224 150.806 38.5664 150.29C38.1224 149.774 37.5464 149.516 36.8384 149.516C36.1304 149.516 35.5544 149.744 35.1104 150.2C34.6784 150.656 34.4624 151.22 34.4624 151.892C34.4624 152.564 34.6544 153.122 35.0384 153.566C35.4344 153.998 36.0044 154.214 36.7484 154.214ZM76.9041 150.2L76.8681 148.85C76.8681 148.73 76.8741 148.634 76.8861 148.562C76.9221 148.562 77.0481 148.532 77.2641 148.472C77.6241 148.388 77.8641 148.346 77.9841 148.346C78.1161 148.346 78.2241 148.364 78.3081 148.4C78.4521 148.496 78.5301 149.33 78.5421 150.902C78.5541 152.474 78.5601 153.686 78.5601 154.538L78.5421 158.732L78.5781 159.92C78.5781 160.64 78.3321 161 77.8401 161C77.4321 161 77.1801 160.976 77.0841 160.928C76.9881 160.868 76.9401 160.712 76.9401 160.46L76.9041 150.2ZM88.1448 160.316C87.4128 159.716 86.8728 158.942 86.5248 157.994C86.1888 157.046 86.0208 156.086 86.0208 155.114C86.0208 154.142 86.0988 153.29 86.2548 152.558C86.4228 151.814 86.6808 151.106 87.0288 150.434C87.3888 149.75 87.8988 149.204 88.5588 148.796C89.2188 148.388 89.9988 148.184 90.8988 148.184C92.2308 148.184 93.3108 148.76 94.1388 149.912C94.9788 151.052 95.3988 152.642 95.3988 154.682C95.3988 156.722 94.9728 158.324 94.1208 159.488C93.2688 160.64 92.1408 161.216 90.7368 161.216C89.7408 161.216 88.8768 160.916 88.1448 160.316ZM90.9888 149.57C89.9688 149.57 89.1828 150.014 88.6308 150.902C88.0788 151.79 87.8028 153.008 87.8028 154.556C87.8028 156.092 88.0788 157.346 88.6308 158.318C89.1828 159.278 89.9328 159.758 90.8808 159.758C91.8408 159.758 92.5908 159.278 93.1308 158.318C93.6828 157.346 93.9588 156.116 93.9588 154.628C93.9588 153.14 93.6708 151.928 93.0948 150.992C92.5308 150.044 91.8288 149.57 90.9888 149.57ZM130.946 150.2L130.91 148.85C130.91 148.73 130.916 148.634 130.928 148.562C130.964 148.562 131.09 148.532 131.306 148.472C131.666 148.388 131.906 148.346 132.026 148.346C132.158 148.346 132.266 148.364 132.35 148.4C132.494 148.496 132.572 149.33 132.584 150.902C132.596 152.474 132.602 153.686 132.602 154.538L132.584 158.732L132.62 159.92C132.62 160.64 132.374 161 131.882 161C131.474 161 131.222 160.976 131.126 160.928C131.03 160.868 130.982 160.712 130.982 160.46L130.946 150.2ZM140.693 150.2L140.657 148.85C140.657 148.73 140.663 148.634 140.675 148.562C140.711 148.562 140.837 148.532 141.053 148.472C141.413 148.388 141.653 148.346 141.773 148.346C141.905 148.346 142.013 148.364 142.097 148.4C142.241 148.496 142.319 149.33 142.331 150.902C142.343 152.474 142.349 153.686 142.349 154.538L142.331 158.732L142.367 159.92C142.367 160.64 142.121 161 141.629 161C141.221 161 140.969 160.976 140.873 160.928C140.777 160.868 140.729 160.712 140.729 160.46L140.693 150.2ZM178.52 150.2L178.484 148.85C178.484 148.73 178.49 148.634 178.502 148.562C178.538 148.562 178.664 148.532 178.88 148.472C179.24 148.388 179.48 148.346 179.6 148.346C179.732 148.346 179.84 148.364 179.924 148.4C180.068 148.496 180.146 149.33 180.158 150.902C180.17 152.474 180.176 153.686 180.176 154.538L180.158 158.732L180.194 159.92C180.194 160.64 179.948 161 179.456 161C179.048 161 178.796 160.976 178.7 160.928C178.604 160.868 178.556 160.712 178.556 160.46L178.52 150.2ZM193.126 159.506L193.9 159.416C194.26 159.416 194.44 159.524 194.44 159.74C194.44 160.232 194.35 160.568 194.17 160.748C193.99 160.916 193.684 161 193.252 161H188.05C187.522 161 187.258 160.958 187.258 160.874C187.258 160.79 187.63 160.184 188.374 159.056C189.13 157.916 189.904 156.614 190.696 155.15C191.488 153.674 191.884 152.6 191.884 151.928C191.884 151.256 191.704 150.722 191.344 150.326C190.984 149.93 190.534 149.732 189.994 149.732C189.454 149.732 188.704 149.948 187.744 150.38C187.732 150.392 187.69 150.368 187.618 150.308C187.414 150.116 187.312 149.882 187.312 149.606C187.312 149.258 187.672 148.934 188.392 148.634C189.124 148.334 189.778 148.184 190.354 148.184C191.398 148.184 192.184 148.46 192.712 149.012C193.252 149.552 193.522 150.26 193.522 151.136C193.522 152 193.264 152.972 192.748 154.052C192.244 155.12 191.608 156.242 190.84 157.418C190.072 158.594 189.64 159.278 189.544 159.47C189.688 159.494 190.282 159.506 191.326 159.506H193.126ZM220.231 150.2L220.195 148.85C220.195 148.73 220.201 148.634 220.213 148.562C220.249 148.562 220.375 148.532 220.591 148.472C220.951 148.388 221.191 148.346 221.311 148.346C221.443 148.346 221.551 148.364 221.635 148.4C221.779 148.496 221.857 149.33 221.869 150.902C221.881 152.474 221.887 153.686 221.887 154.538L221.869 158.732L221.905 159.92C221.905 160.64 221.659 161 221.167 161C220.759 161 220.507 160.976 220.411 160.928C220.315 160.868 220.267 160.712 220.267 160.46L220.231 150.2ZM229.906 161.666C229.666 161.666 229.462 161.576 229.294 161.396C229.138 161.228 229.06 161.078 229.06 160.946C229.06 160.814 229.072 160.7 229.096 160.604C231.952 160.508 233.38 159.392 233.38 157.256C233.38 156.14 232.81 155.33 231.67 154.826C231.19 154.61 230.944 154.442 230.932 154.322C231.04 154.154 231.274 153.854 231.634 153.422C232.006 152.99 232.3 152.576 232.516 152.18C232.744 151.784 232.858 151.364 232.858 150.92C232.858 150.476 232.702 150.11 232.39 149.822C232.078 149.534 231.622 149.39 231.022 149.39C230.818 149.39 230.476 149.45 229.996 149.57C229.516 149.69 229.24 149.75 229.168 149.75C229.096 149.75 228.982 149.696 228.826 149.588C228.682 149.468 228.61 149.348 228.61 149.228C228.61 149.024 228.916 148.808 229.528 148.58C230.152 148.34 230.782 148.22 231.418 148.22C232.402 148.22 233.188 148.424 233.776 148.832C234.364 149.228 234.658 149.78 234.658 150.488C234.658 150.908 234.556 151.34 234.352 151.784C234.148 152.216 233.932 152.564 233.704 152.828C233.476 153.08 233.236 153.326 232.984 153.566L232.606 153.926C232.606 153.998 232.654 154.064 232.75 154.124C232.858 154.184 232.948 154.232 233.02 154.268C233.668 154.592 234.184 155.024 234.568 155.564C234.964 156.092 235.162 156.704 235.162 157.4C235.162 158.732 234.652 159.764 233.632 160.496C232.624 161.228 231.382 161.618 229.906 161.666ZM261.556 150.2L261.52 148.85C261.52 148.73 261.526 148.634 261.538 148.562C261.574 148.562 261.7 148.532 261.916 148.472C262.276 148.388 262.516 148.346 262.636 148.346C262.768 148.346 262.876 148.364 262.96 148.4C263.104 148.496 263.182 149.33 263.194 150.902C263.206 152.474 263.212 153.686 263.212 154.538L263.194 158.732L263.23 159.92C263.23 160.64 262.984 161 262.492 161C262.084 161 261.832 160.976 261.736 160.928C261.64 160.868 261.592 160.712 261.592 160.46L261.556 150.2ZM276.649 148.472C276.649 149.612 276.637 151.49 276.613 154.106C276.661 154.166 276.793 154.196 277.009 154.196H277.441C277.837 154.196 278.035 154.298 278.035 154.502C278.035 155.03 277.993 155.318 277.909 155.366C277.837 155.402 277.687 155.42 277.459 155.42C277.231 155.42 277.021 155.426 276.829 155.438C276.649 155.438 276.559 155.468 276.559 155.528L276.577 157.526C276.577 158.534 276.559 159.32 276.523 159.884C276.487 160.436 276.403 160.76 276.271 160.856C276.139 160.952 275.911 161 275.587 161C275.275 161 275.095 160.976 275.047 160.928C274.975 160.856 274.939 160.508 274.939 159.884V159.56C274.939 159.464 274.939 159.296 274.939 159.056L274.975 155.852L274.957 155.402C274.633 155.378 274.135 155.366 273.463 155.366L270.889 155.348C270.721 155.348 270.571 155.336 270.439 155.312C270.307 155.276 270.151 155.162 269.971 154.97C269.803 154.766 269.713 154.628 269.701 154.556C269.701 154.472 269.737 154.382 269.809 154.286C269.893 154.178 270.001 154.052 270.133 153.908C270.277 153.764 270.421 153.608 270.565 153.44C270.709 153.26 271.015 152.918 271.483 152.414C271.963 151.91 272.323 151.52 272.563 151.244C274.363 149.168 275.497 148.13 275.965 148.13C276.445 148.13 276.673 148.244 276.649 148.472ZM273.067 154.178L274.399 154.214C274.711 154.214 274.909 154.142 274.993 153.998L275.011 152.432V151.154C275.011 151.022 275.017 150.788 275.029 150.452C275.053 150.116 275.059 149.948 275.047 149.948C274.447 150.692 273.967 151.244 273.607 151.604C273.247 151.964 272.821 152.432 272.329 153.008C271.849 153.572 271.555 153.95 271.447 154.142C271.555 154.166 272.095 154.178 273.067 154.178ZM304.217 150.2L304.181 148.85C304.181 148.73 304.187 148.634 304.199 148.562C304.235 148.562 304.361 148.532 304.577 148.472C304.937 148.388 305.177 148.346 305.297 148.346C305.429 148.346 305.537 148.364 305.621 148.4C305.765 148.496 305.843 149.33 305.855 150.902C305.867 152.474 305.873 153.686 305.873 154.538L305.855 158.732L305.891 159.92C305.891 160.64 305.645 161 305.153 161C304.745 161 304.493 160.976 304.397 160.928C304.301 160.868 304.253 160.712 304.253 160.46L304.217 150.2ZM313.567 153.53L313.621 152.558C313.789 150.602 313.891 149.462 313.927 149.138C313.975 148.802 314.065 148.604 314.197 148.544C314.401 148.448 315.229 148.4 316.681 148.4C318.145 148.4 318.877 148.526 318.877 148.778C318.877 149.654 318.589 150.092 318.013 150.092H315.043C314.971 150.272 314.917 150.626 314.881 151.154C314.857 151.67 314.833 152.03 314.809 152.234C314.797 152.438 314.785 152.654 314.773 152.882C314.797 152.906 315.043 152.96 315.511 153.044C315.979 153.116 316.261 153.164 316.357 153.188C317.149 153.428 317.839 153.848 318.427 154.448C319.015 155.036 319.309 155.834 319.309 156.842C319.309 158.066 318.781 159.182 317.725 160.19C316.669 161.186 315.499 161.684 314.215 161.684C313.759 161.684 313.531 161.312 313.531 160.568C313.543 160.568 313.561 160.568 313.585 160.568C314.593 160.568 315.505 160.232 316.321 159.56C317.137 158.876 317.545 158.084 317.545 157.184C317.545 156.284 317.245 155.558 316.645 155.006C316.045 154.442 315.313 154.13 314.449 154.07C314.401 154.07 314.323 154.076 314.215 154.088C314.119 154.088 314.041 154.088 313.981 154.088C313.921 154.076 313.855 154.052 313.783 154.016C313.639 153.968 313.567 153.806 313.567 153.53Z" fill="#BA9845"/>
<path d="M30.1089 198.8L30.0749 197.525C30.0749 197.412 30.0805 197.321 30.0919 197.253C30.1259 197.253 30.2449 197.225 30.4489 197.168C30.7889 197.089 31.0155 197.049 31.1289 197.049C31.2535 197.049 31.3555 197.066 31.4349 197.1C31.5709 197.191 31.6445 197.978 31.6559 199.463C31.6672 200.948 31.6729 202.092 31.6729 202.897L31.6559 206.858L31.6899 207.98C31.6899 208.66 31.4575 209 30.9929 209C30.6075 209 30.3695 208.977 30.2789 208.932C30.1882 208.875 30.1429 208.728 30.1429 208.49L30.1089 198.8ZM42.9351 196.777C42.9918 196.743 43.0711 196.726 43.1731 196.726C43.2864 196.726 43.4338 196.817 43.6151 196.998C43.8078 197.179 43.9041 197.315 43.9041 197.406C43.9041 197.497 43.8871 197.559 43.8531 197.593C41.6544 199.52 40.5551 201.463 40.5551 203.424C41.3938 202.642 42.3061 202.251 43.2921 202.251C44.2781 202.251 45.0601 202.568 45.6381 203.203C46.2274 203.826 46.5221 204.631 46.5221 205.617C46.5221 206.456 46.2614 207.243 45.7401 207.98C45.4681 208.343 45.0941 208.637 44.6181 208.864C44.1421 209.091 43.5924 209.204 42.9691 209.204C41.6998 209.204 40.7024 208.779 39.9771 207.929C39.2631 207.068 38.9061 205.895 38.9061 204.41C38.9061 202.914 39.2858 201.475 40.0451 200.092C40.8158 198.709 41.7791 197.604 42.9351 196.777ZM43.0711 203.509C42.5951 203.509 42.1474 203.634 41.7281 203.883C41.3088 204.121 41.0311 204.37 40.8951 204.631C40.7704 204.88 40.7081 205.124 40.7081 205.362C40.7081 206.11 40.9178 206.728 41.3371 207.215C41.7678 207.702 42.3174 207.946 42.9861 207.946C43.6548 207.946 44.1931 207.731 44.6011 207.3C45.0204 206.869 45.2301 206.337 45.2301 205.702C45.2301 205.067 45.0431 204.546 44.6691 204.138C44.3064 203.719 43.7738 203.509 43.0711 203.509ZM79.721 198.8L79.687 197.525C79.687 197.412 79.6926 197.321 79.704 197.253C79.738 197.253 79.857 197.225 80.061 197.168C80.401 197.089 80.6276 197.049 80.741 197.049C80.8656 197.049 80.9676 197.066 81.047 197.1C81.183 197.191 81.2566 197.978 81.268 199.463C81.2793 200.948 81.285 202.092 81.285 202.897L81.268 206.858L81.302 207.98C81.302 208.66 81.0696 209 80.605 209C80.2196 209 79.9816 208.977 79.891 208.932C79.8003 208.875 79.755 208.728 79.755 208.49L79.721 198.8ZM92.4792 198.698L89.8612 198.715C89.4192 198.715 88.9999 198.709 88.6032 198.698H88.0252C87.8439 198.698 87.7249 198.664 87.6682 198.596C87.6115 198.528 87.5832 198.301 87.5832 197.916C87.5832 197.519 87.6172 197.298 87.6852 197.253C87.8552 197.151 88.8412 197.1 90.6432 197.1C92.4452 197.1 93.6069 197.106 94.1282 197.117C94.0149 197.82 93.6749 199.259 93.1082 201.435C92.5529 203.6 92.1902 204.965 92.0202 205.532C91.8389 206.11 91.6235 206.847 91.3742 207.742C91.1249 208.637 90.9662 209.13 90.8982 209.221C90.8415 209.323 90.7395 209.374 90.5922 209.374C90.4562 209.374 90.1955 209.278 89.8102 209.085C89.8102 208.881 89.9065 208.405 90.0992 207.657C91.1419 203.996 91.9352 201.01 92.4792 198.698ZM127.524 198.8L127.49 197.525C127.49 197.412 127.495 197.321 127.507 197.253C127.541 197.253 127.66 197.225 127.864 197.168C128.204 197.089 128.43 197.049 128.544 197.049C128.668 197.049 128.77 197.066 128.85 197.1C128.986 197.191 129.059 197.978 129.071 199.463C129.082 200.948 129.088 202.092 129.088 202.897L129.071 206.858L129.105 207.98C129.105 208.66 128.872 209 128.408 209C128.022 209 127.784 208.977 127.694 208.932C127.603 208.875 127.558 208.728 127.558 208.49L127.524 198.8ZM139.602 209.204C138.627 209.204 137.834 208.938 137.222 208.405C136.621 207.861 136.321 207.181 136.321 206.365C136.321 205.538 136.508 204.863 136.882 204.342C137.256 203.809 137.777 203.311 138.446 202.846C137.924 202.461 137.511 202.053 137.205 201.622C136.91 201.191 136.706 200.585 136.593 199.803C136.593 198.953 136.921 198.262 137.579 197.729C138.236 197.196 138.961 196.919 139.755 196.896C140.639 196.896 141.358 197.117 141.914 197.559C142.48 198.001 142.764 198.63 142.764 199.446C142.764 200.081 142.577 200.664 142.203 201.197C141.84 201.718 141.375 202.149 140.809 202.489C140.854 202.523 140.905 202.557 140.962 202.591C141.018 202.614 141.075 202.642 141.132 202.676C142.412 203.56 143.064 204.614 143.087 205.838C143.087 206.813 142.747 207.617 142.067 208.252C141.398 208.887 140.576 209.204 139.602 209.204ZM139.33 203.492L138.854 203.866C138.162 204.467 137.805 205.141 137.783 205.889C137.794 206.592 137.97 207.13 138.31 207.504C138.661 207.878 139.12 208.065 139.687 208.065C140.253 208.065 140.729 207.895 141.115 207.555C141.511 207.204 141.71 206.784 141.71 206.297C141.71 205.277 140.916 204.342 139.33 203.492ZM139.959 201.877C140.31 201.582 140.559 201.367 140.707 201.231C140.854 201.084 141.018 200.857 141.2 200.551C141.381 200.245 141.472 199.894 141.472 199.497C141.472 199.1 141.336 198.749 141.064 198.443C140.792 198.126 140.401 197.967 139.891 197.967C139.392 197.967 138.973 198.097 138.633 198.358C138.293 198.619 138.123 198.97 138.123 199.412C138.123 199.854 138.208 200.211 138.378 200.483C138.559 200.755 138.831 201.05 139.194 201.367C139.556 201.684 139.811 201.854 139.959 201.877ZM176.853 198.8L176.819 197.525C176.819 197.412 176.825 197.321 176.836 197.253C176.87 197.253 176.989 197.225 177.193 197.168C177.533 197.089 177.76 197.049 177.873 197.049C177.998 197.049 178.1 197.066 178.179 197.1C178.315 197.191 178.389 197.978 178.4 199.463C178.412 200.948 178.417 202.092 178.417 202.897L178.4 206.858L178.434 207.98C178.434 208.66 178.202 209 177.737 209C177.352 209 177.114 208.977 177.023 208.932C176.933 208.875 176.887 208.728 176.887 208.49L176.853 198.8ZM188.677 209.323C188.631 209.357 188.552 209.374 188.439 209.374C188.325 209.374 188.172 209.283 187.98 209.102C187.798 208.921 187.708 208.785 187.708 208.694C187.708 208.603 187.725 208.541 187.759 208.507C189.957 206.58 191.057 204.637 191.057 202.676C190.218 203.458 189.306 203.849 188.32 203.849C187.334 203.849 186.546 203.537 185.957 202.914C185.379 202.279 185.09 201.469 185.09 200.483C185.09 199.644 185.356 198.857 185.889 198.12C186.149 197.757 186.518 197.463 186.994 197.236C187.47 197.009 188.019 196.896 188.643 196.896C189.912 196.896 190.904 197.327 191.618 198.188C192.343 199.038 192.706 200.211 192.706 201.707C192.706 203.192 192.32 204.625 191.55 206.008C190.79 207.391 189.833 208.496 188.677 209.323ZM188.541 202.591C189.017 202.591 189.464 202.472 189.884 202.234C190.303 201.985 190.575 201.735 190.7 201.486C190.836 201.225 190.904 200.976 190.904 200.738C190.904 199.99 190.688 199.372 190.258 198.885C189.838 198.398 189.294 198.154 188.626 198.154C187.957 198.154 187.413 198.369 186.994 198.8C186.586 199.231 186.382 199.763 186.382 200.398C186.382 201.033 186.563 201.56 186.926 201.979C187.3 202.387 187.838 202.591 188.541 202.591ZM222.216 207.589L222.947 207.504C223.287 207.504 223.457 207.606 223.457 207.81C223.457 208.275 223.372 208.592 223.202 208.762C223.032 208.921 222.743 209 222.335 209H217.422C216.923 209 216.674 208.96 216.674 208.881C216.674 208.802 217.025 208.229 217.728 207.164C218.442 206.087 219.173 204.858 219.921 203.475C220.669 202.081 221.043 201.067 221.043 200.432C221.043 199.797 220.873 199.293 220.533 198.919C220.193 198.545 219.768 198.358 219.258 198.358C218.748 198.358 218.039 198.562 217.133 198.97C217.121 198.981 217.082 198.959 217.014 198.902C216.821 198.721 216.725 198.5 216.725 198.239C216.725 197.91 217.065 197.604 217.745 197.321C218.436 197.038 219.054 196.896 219.598 196.896C220.584 196.896 221.326 197.157 221.825 197.678C222.335 198.188 222.59 198.857 222.59 199.684C222.59 200.5 222.346 201.418 221.859 202.438C221.383 203.447 220.782 204.506 220.057 205.617C219.331 206.728 218.923 207.374 218.833 207.555C218.969 207.578 219.53 207.589 220.516 207.589H222.216ZM231.545 208.354C230.854 207.787 230.344 207.056 230.015 206.161C229.698 205.266 229.539 204.359 229.539 203.441C229.539 202.523 229.613 201.718 229.76 201.027C229.919 200.324 230.163 199.656 230.491 199.021C230.831 198.375 231.313 197.859 231.936 197.474C232.56 197.089 233.296 196.896 234.146 196.896C235.404 196.896 236.424 197.44 237.206 198.528C238 199.605 238.396 201.106 238.396 203.033C238.396 204.96 237.994 206.473 237.189 207.572C236.385 208.66 235.319 209.204 233.993 209.204C233.053 209.204 232.237 208.921 231.545 208.354ZM234.231 198.205C233.268 198.205 232.526 198.624 232.004 199.463C231.483 200.302 231.222 201.452 231.222 202.914C231.222 204.365 231.483 205.549 232.004 206.467C232.526 207.374 233.234 207.827 234.129 207.827C235.036 207.827 235.744 207.374 236.254 206.467C236.776 205.549 237.036 204.387 237.036 202.982C237.036 201.577 236.764 200.432 236.22 199.548C235.688 198.653 235.025 198.205 234.231 198.205ZM267.719 207.589L268.45 207.504C268.79 207.504 268.96 207.606 268.96 207.81C268.96 208.275 268.875 208.592 268.705 208.762C268.535 208.921 268.246 209 267.838 209H262.925C262.426 209 262.177 208.96 262.177 208.881C262.177 208.802 262.528 208.229 263.231 207.164C263.945 206.087 264.676 204.858 265.424 203.475C266.172 202.081 266.546 201.067 266.546 200.432C266.546 199.797 266.376 199.293 266.036 198.919C265.696 198.545 265.271 198.358 264.761 198.358C264.251 198.358 263.543 198.562 262.636 198.97C262.625 198.981 262.585 198.959 262.517 198.902C262.324 198.721 262.228 198.5 262.228 198.239C262.228 197.91 262.568 197.604 263.248 197.321C263.939 197.038 264.557 196.896 265.101 196.896C266.087 196.896 266.829 197.157 267.328 197.678C267.838 198.188 268.093 198.857 268.093 199.684C268.093 200.5 267.849 201.418 267.362 202.438C266.886 203.447 266.285 204.506 265.56 205.617C264.835 206.728 264.427 207.374 264.336 207.555C264.472 207.578 265.033 207.589 266.019 207.589H267.719ZM275.638 198.8L275.604 197.525C275.604 197.412 275.61 197.321 275.621 197.253C275.655 197.253 275.774 197.225 275.978 197.168C276.318 197.089 276.545 197.049 276.658 197.049C276.783 197.049 276.885 197.066 276.964 197.1C277.1 197.191 277.174 197.978 277.185 199.463C277.196 200.948 277.202 202.092 277.202 202.897L277.185 206.858L277.219 207.98C277.219 208.66 276.987 209 276.522 209C276.137 209 275.899 208.977 275.808 208.932C275.717 208.875 275.672 208.728 275.672 208.49L275.638 198.8ZM307.113 207.589L307.844 207.504C308.184 207.504 308.354 207.606 308.354 207.81C308.354 208.275 308.269 208.592 308.099 208.762C307.929 208.921 307.64 209 307.232 209H302.319C301.821 209 301.571 208.96 301.571 208.881C301.571 208.802 301.923 208.229 302.625 207.164C303.339 206.087 304.07 204.858 304.818 203.475C305.566 202.081 305.94 201.067 305.94 200.432C305.94 199.797 305.77 199.293 305.43 198.919C305.09 198.545 304.665 198.358 304.155 198.358C303.645 198.358 302.937 198.562 302.03 198.97C302.019 198.981 301.979 198.959 301.911 198.902C301.719 198.721 301.622 198.5 301.622 198.239C301.622 197.91 301.962 197.604 302.642 197.321C303.334 197.038 303.951 196.896 304.495 196.896C305.481 196.896 306.224 197.157 306.722 197.678C307.232 198.188 307.487 198.857 307.487 199.684C307.487 200.5 307.244 201.418 306.756 202.438C306.28 203.447 305.68 204.506 304.954 205.617C304.229 206.728 303.821 207.374 303.73 207.555C303.866 207.578 304.427 207.589 305.413 207.589H307.113ZM319.622 207.589L320.353 207.504C320.693 207.504 320.863 207.606 320.863 207.81C320.863 208.275 320.778 208.592 320.608 208.762C320.438 208.921 320.149 209 319.741 209H314.828C314.33 209 314.08 208.96 314.08 208.881C314.08 208.802 314.432 208.229 315.134 207.164C315.848 206.087 316.579 204.858 317.327 203.475C318.075 202.081 318.449 201.067 318.449 200.432C318.449 199.797 318.279 199.293 317.939 198.919C317.599 198.545 317.174 198.358 316.664 198.358C316.154 198.358 315.446 198.562 314.539 198.97C314.528 198.981 314.488 198.959 314.42 198.902C314.228 198.721 314.131 198.5 314.131 198.239C314.131 197.91 314.471 197.604 315.151 197.321C315.843 197.038 316.46 196.896 317.004 196.896C317.99 196.896 318.733 197.157 319.231 197.678C319.741 198.188 319.996 198.857 319.996 199.684C319.996 200.5 319.753 201.418 319.265 202.438C318.789 203.447 318.189 204.506 317.463 205.617C316.738 206.728 316.33 207.374 316.239 207.555C316.375 207.578 316.936 207.589 317.922 207.589H319.622Z" fill="#BA9845"/>
<path d="M34.1047 255.589L34.8357 255.504C35.1757 255.504 35.3457 255.606 35.3457 255.81C35.3457 256.275 35.2607 256.592 35.0907 256.762C34.9207 256.921 34.6317 257 34.2237 257H29.3107C28.812 257 28.5627 256.96 28.5627 256.881C28.5627 256.802 28.914 256.229 29.6167 255.164C30.3307 254.087 31.0617 252.858 31.8097 251.475C32.5577 250.081 32.9317 249.067 32.9317 248.432C32.9317 247.797 32.7617 247.293 32.4217 246.919C32.0817 246.545 31.6567 246.358 31.1467 246.358C30.6367 246.358 29.9284 246.562 29.0217 246.97C29.0104 246.981 28.9707 246.959 28.9027 246.902C28.71 246.721 28.6137 246.5 28.6137 246.239C28.6137 245.91 28.9537 245.604 29.6337 245.321C30.325 245.038 30.9427 244.896 31.4867 244.896C32.4727 244.896 33.215 245.157 33.7137 245.678C34.2237 246.188 34.4787 246.857 34.4787 247.684C34.4787 248.5 34.235 249.418 33.7477 250.438C33.2717 251.447 32.671 252.506 31.9457 253.617C31.2204 254.728 30.8124 255.374 30.7217 255.555C30.8577 255.578 31.4187 255.589 32.4047 255.589H34.1047ZM41.9557 257.629C41.729 257.629 41.5363 257.544 41.3777 257.374C41.2303 257.215 41.1567 257.074 41.1567 256.949C41.1567 256.824 41.168 256.717 41.1907 256.626C43.888 256.535 45.2367 255.481 45.2367 253.464C45.2367 252.41 44.6983 251.645 43.6217 251.169C43.1683 250.965 42.936 250.806 42.9247 250.693C43.0267 250.534 43.2477 250.251 43.5877 249.843C43.939 249.435 44.2167 249.044 44.4207 248.67C44.636 248.296 44.7437 247.899 44.7437 247.48C44.7437 247.061 44.5963 246.715 44.3017 246.443C44.007 246.171 43.5763 246.035 43.0097 246.035C42.817 246.035 42.494 246.092 42.0407 246.205C41.5873 246.318 41.3267 246.375 41.2587 246.375C41.1907 246.375 41.083 246.324 40.9357 246.222C40.7997 246.109 40.7317 245.995 40.7317 245.882C40.7317 245.689 41.0207 245.485 41.5987 245.27C42.188 245.043 42.783 244.93 43.3837 244.93C44.313 244.93 45.0553 245.123 45.6107 245.508C46.166 245.882 46.4437 246.403 46.4437 247.072C46.4437 247.469 46.3473 247.877 46.1547 248.296C45.962 248.704 45.758 249.033 45.5427 249.282C45.3273 249.52 45.1007 249.752 44.8627 249.979L44.5057 250.319C44.5057 250.387 44.551 250.449 44.6417 250.506C44.7437 250.563 44.8287 250.608 44.8967 250.642C45.5087 250.948 45.996 251.356 46.3587 251.866C46.7327 252.365 46.9197 252.943 46.9197 253.6C46.9197 254.858 46.438 255.833 45.4747 256.524C44.5227 257.215 43.3497 257.584 41.9557 257.629ZM85.2774 255.589L86.0084 255.504C86.3484 255.504 86.5184 255.606 86.5184 255.81C86.5184 256.275 86.4334 256.592 86.2634 256.762C86.0934 256.921 85.8044 257 85.3964 257H80.4834C79.9847 257 79.7354 256.96 79.7354 256.881C79.7354 256.802 80.0867 256.229 80.7894 255.164C81.5034 254.087 82.2344 252.858 82.9824 251.475C83.7304 250.081 84.1044 249.067 84.1044 248.432C84.1044 247.797 83.9344 247.293 83.5944 246.919C83.2544 246.545 82.8294 246.358 82.3194 246.358C81.8094 246.358 81.101 246.562 80.1944 246.97C80.183 246.981 80.1434 246.959 80.0754 246.902C79.8827 246.721 79.7864 246.5 79.7864 246.239C79.7864 245.91 80.1264 245.604 80.8064 245.321C81.4977 245.038 82.1154 244.896 82.6594 244.896C83.6454 244.896 84.3877 245.157 84.8864 245.678C85.3964 246.188 85.6514 246.857 85.6514 247.684C85.6514 248.5 85.4077 249.418 84.9204 250.438C84.4444 251.447 83.8437 252.506 83.1184 253.617C82.393 254.728 81.985 255.374 81.8944 255.555C82.0304 255.578 82.5914 255.589 83.5774 255.589H85.2774ZM98.2453 245.168C98.2453 246.245 98.234 248.018 98.2113 250.489C98.2566 250.546 98.3813 250.574 98.5853 250.574H98.9933C99.3673 250.574 99.5543 250.67 99.5543 250.863C99.5543 251.362 99.5146 251.634 99.4353 251.679C99.3673 251.713 99.2256 251.73 99.0103 251.73C98.795 251.73 98.5966 251.736 98.4153 251.747C98.2453 251.747 98.1603 251.775 98.1603 251.832L98.1773 253.719C98.1773 254.671 98.1603 255.413 98.1263 255.946C98.0923 256.467 98.013 256.773 97.8883 256.864C97.7636 256.955 97.5483 257 97.2423 257C96.9476 257 96.7776 256.977 96.7323 256.932C96.6643 256.864 96.6303 256.535 96.6303 255.946V255.64C96.6303 255.549 96.6303 255.391 96.6303 255.164L96.6643 252.138L96.6473 251.713C96.3413 251.69 95.871 251.679 95.2363 251.679L92.8053 251.662C92.6466 251.662 92.505 251.651 92.3803 251.628C92.2556 251.594 92.1083 251.486 91.9383 251.305C91.7796 251.112 91.6946 250.982 91.6833 250.914C91.6833 250.835 91.7173 250.75 91.7853 250.659C91.8646 250.557 91.9666 250.438 92.0913 250.302C92.2273 250.166 92.3633 250.019 92.4993 249.86C92.6353 249.69 92.9243 249.367 93.3663 248.891C93.8196 248.415 94.1596 248.047 94.3863 247.786C96.0863 245.825 97.1573 244.845 97.5993 244.845C98.0526 244.845 98.268 244.953 98.2453 245.168ZM94.8623 250.557L96.1203 250.591C96.415 250.591 96.602 250.523 96.6813 250.387L96.6983 248.908V247.701C96.6983 247.576 96.704 247.355 96.7153 247.038C96.738 246.721 96.7436 246.562 96.7323 246.562C96.1656 247.265 95.7123 247.786 95.3723 248.126C95.0323 248.466 94.63 248.908 94.1653 249.452C93.712 249.985 93.4343 250.342 93.3323 250.523C93.4343 250.546 93.9443 250.557 94.8623 250.557ZM128.872 255.589L129.603 255.504C129.943 255.504 130.113 255.606 130.113 255.81C130.113 256.275 130.028 256.592 129.858 256.762C129.688 256.921 129.399 257 128.991 257H124.078C123.579 257 123.33 256.96 123.33 256.881C123.33 256.802 123.681 256.229 124.384 255.164C125.098 254.087 125.829 252.858 126.577 251.475C127.325 250.081 127.699 249.067 127.699 248.432C127.699 247.797 127.529 247.293 127.189 246.919C126.849 246.545 126.424 246.358 125.914 246.358C125.404 246.358 124.695 246.562 123.789 246.97C123.777 246.981 123.738 246.959 123.67 246.902C123.477 246.721 123.381 246.5 123.381 246.239C123.381 245.91 123.721 245.604 124.401 245.321C125.092 245.038 125.71 244.896 126.254 244.896C127.24 244.896 127.982 245.157 128.481 245.678C128.991 246.188 129.246 246.857 129.246 247.684C129.246 248.5 129.002 249.418 128.515 250.438C128.039 251.447 127.438 252.506 126.713 253.617C125.987 254.728 125.579 255.374 125.489 255.555C125.625 255.578 126.186 255.589 127.172 255.589H128.872ZM136.417 249.945L136.468 249.027C136.626 247.18 136.723 246.103 136.757 245.797C136.802 245.48 136.887 245.293 137.012 245.236C137.204 245.145 137.986 245.1 139.358 245.1C140.74 245.1 141.432 245.219 141.432 245.457C141.432 246.284 141.16 246.698 140.616 246.698H137.811C137.743 246.868 137.692 247.202 137.658 247.701C137.635 248.188 137.612 248.528 137.59 248.721C137.578 248.914 137.567 249.118 137.556 249.333C137.578 249.356 137.811 249.407 138.253 249.486C138.695 249.554 138.961 249.599 139.052 249.622C139.8 249.849 140.451 250.245 141.007 250.812C141.562 251.367 141.84 252.121 141.84 253.073C141.84 254.229 141.341 255.283 140.344 256.235C139.346 257.176 138.241 257.646 137.029 257.646C136.598 257.646 136.383 257.295 136.383 256.592C136.394 256.592 136.411 256.592 136.434 256.592C137.386 256.592 138.247 256.275 139.018 255.64C139.788 254.994 140.174 254.246 140.174 253.396C140.174 252.546 139.89 251.86 139.324 251.339C138.757 250.806 138.066 250.512 137.25 250.455C137.204 250.455 137.131 250.461 137.029 250.472C136.938 250.472 136.864 250.472 136.808 250.472C136.751 250.461 136.689 250.438 136.621 250.404C136.485 250.359 136.417 250.206 136.417 249.945ZM180.194 255.589L180.925 255.504C181.265 255.504 181.435 255.606 181.435 255.81C181.435 256.275 181.35 256.592 181.18 256.762C181.01 256.921 180.721 257 180.313 257H175.4C174.901 257 174.652 256.96 174.652 256.881C174.652 256.802 175.003 256.229 175.706 255.164C176.42 254.087 177.151 252.858 177.899 251.475C178.647 250.081 179.021 249.067 179.021 248.432C179.021 247.797 178.851 247.293 178.511 246.919C178.171 246.545 177.746 246.358 177.236 246.358C176.726 246.358 176.017 246.562 175.111 246.97C175.099 246.981 175.06 246.959 174.992 246.902C174.799 246.721 174.703 246.5 174.703 246.239C174.703 245.91 175.043 245.604 175.723 245.321C176.414 245.038 177.032 244.896 177.576 244.896C178.562 244.896 179.304 245.157 179.803 245.678C180.313 246.188 180.568 246.857 180.568 247.684C180.568 248.5 180.324 249.418 179.837 250.438C179.361 251.447 178.76 252.506 178.035 253.617C177.309 254.728 176.901 255.374 176.811 255.555C176.947 255.578 177.508 255.589 178.494 255.589H180.194ZM191.734 244.777C191.79 244.743 191.87 244.726 191.972 244.726C192.085 244.726 192.232 244.817 192.414 244.998C192.606 245.179 192.703 245.315 192.703 245.406C192.703 245.497 192.686 245.559 192.652 245.593C190.453 247.52 189.354 249.463 189.354 251.424C190.192 250.642 191.105 250.251 192.091 250.251C193.077 250.251 193.859 250.568 194.437 251.203C195.026 251.826 195.321 252.631 195.321 253.617C195.321 254.456 195.06 255.243 194.539 255.98C194.267 256.343 193.893 256.637 193.417 256.864C192.941 257.091 192.391 257.204 191.768 257.204C190.498 257.204 189.501 256.779 188.776 255.929C188.062 255.068 187.705 253.895 187.705 252.41C187.705 250.914 188.084 249.475 188.844 248.092C189.614 246.709 190.578 245.604 191.734 244.777ZM191.87 251.509C191.394 251.509 190.946 251.634 190.527 251.883C190.107 252.121 189.83 252.37 189.694 252.631C189.569 252.88 189.507 253.124 189.507 253.362C189.507 254.11 189.716 254.728 190.136 255.215C190.566 255.702 191.116 255.946 191.785 255.946C192.453 255.946 192.992 255.731 193.4 255.3C193.819 254.869 194.029 254.337 194.029 253.702C194.029 253.067 193.842 252.546 193.468 252.138C193.105 251.719 192.572 251.509 191.87 251.509ZM224.27 255.589L225.001 255.504C225.341 255.504 225.511 255.606 225.511 255.81C225.511 256.275 225.426 256.592 225.256 256.762C225.086 256.921 224.797 257 224.389 257H219.476C218.977 257 218.728 256.96 218.728 256.881C218.728 256.802 219.079 256.229 219.782 255.164C220.496 254.087 221.227 252.858 221.975 251.475C222.723 250.081 223.097 249.067 223.097 248.432C223.097 247.797 222.927 247.293 222.587 246.919C222.247 246.545 221.822 246.358 221.312 246.358C220.802 246.358 220.093 246.562 219.187 246.97C219.175 246.981 219.136 246.959 219.068 246.902C218.875 246.721 218.779 246.5 218.779 246.239C218.779 245.91 219.119 245.604 219.799 245.321C220.49 245.038 221.108 244.896 221.652 244.896C222.638 244.896 223.38 245.157 223.879 245.678C224.389 246.188 224.644 246.857 224.644 247.684C224.644 248.5 224.4 249.418 223.913 250.438C223.437 251.447 222.836 252.506 222.111 253.617C221.385 254.728 220.977 255.374 220.887 255.555C221.023 255.578 221.584 255.589 222.57 255.589H224.27ZM235.742 246.698L233.124 246.715C232.682 246.715 232.262 246.709 231.866 246.698H231.288C231.106 246.698 230.987 246.664 230.931 246.596C230.874 246.528 230.846 246.301 230.846 245.916C230.846 245.519 230.88 245.298 230.948 245.253C231.118 245.151 232.104 245.1 233.906 245.1C235.708 245.1 236.869 245.106 237.391 245.117C237.277 245.82 236.937 247.259 236.371 249.435C235.815 251.6 235.453 252.965 235.283 253.532C235.101 254.11 234.886 254.847 234.637 255.742C234.387 256.637 234.229 257.13 234.161 257.221C234.104 257.323 234.002 257.374 233.855 257.374C233.719 257.374 233.458 257.278 233.073 257.085C233.073 256.881 233.169 256.405 233.362 255.657C234.404 251.996 235.198 249.01 235.742 246.698ZM266.536 255.589L267.267 255.504C267.607 255.504 267.777 255.606 267.777 255.81C267.777 256.275 267.692 256.592 267.522 256.762C267.352 256.921 267.063 257 266.655 257H261.742C261.243 257 260.994 256.96 260.994 256.881C260.994 256.802 261.345 256.229 262.048 255.164C262.762 254.087 263.493 252.858 264.241 251.475C264.989 250.081 265.363 249.067 265.363 248.432C265.363 247.797 265.193 247.293 264.853 246.919C264.513 246.545 264.088 246.358 263.578 246.358C263.068 246.358 262.36 246.562 261.453 246.97C261.442 246.981 261.402 246.959 261.334 246.902C261.141 246.721 261.045 246.5 261.045 246.239C261.045 245.91 261.385 245.604 262.065 245.321C262.756 245.038 263.374 244.896 263.918 244.896C264.904 244.896 265.646 245.157 266.145 245.678C266.655 246.188 266.91 246.857 266.91 247.684C266.91 248.5 266.666 249.418 266.179 250.438C265.703 251.447 265.102 252.506 264.377 253.617C263.652 254.728 263.244 255.374 263.153 255.555C263.289 255.578 263.85 255.589 264.836 255.589H266.536ZM277.328 257.204C276.353 257.204 275.56 256.938 274.948 256.405C274.347 255.861 274.047 255.181 274.047 254.365C274.047 253.538 274.234 252.863 274.608 252.342C274.982 251.809 275.503 251.311 276.172 250.846C275.651 250.461 275.237 250.053 274.931 249.622C274.636 249.191 274.432 248.585 274.319 247.803C274.319 246.953 274.648 246.262 275.305 245.729C275.962 245.196 276.688 244.919 277.481 244.896C278.365 244.896 279.085 245.117 279.64 245.559C280.207 246.001 280.49 246.63 280.49 247.446C280.49 248.081 280.303 248.664 279.929 249.197C279.566 249.718 279.102 250.149 278.535 250.489C278.58 250.523 278.631 250.557 278.688 250.591C278.745 250.614 278.801 250.642 278.858 250.676C280.139 251.56 280.79 252.614 280.813 253.838C280.813 254.813 280.473 255.617 279.793 256.252C279.124 256.887 278.303 257.204 277.328 257.204ZM277.056 251.492L276.58 251.866C275.889 252.467 275.532 253.141 275.509 253.889C275.52 254.592 275.696 255.13 276.036 255.504C276.387 255.878 276.846 256.065 277.413 256.065C277.98 256.065 278.456 255.895 278.841 255.555C279.238 255.204 279.436 254.784 279.436 254.297C279.436 253.277 278.643 252.342 277.056 251.492ZM277.685 249.877C278.036 249.582 278.286 249.367 278.433 249.231C278.58 249.084 278.745 248.857 278.926 248.551C279.107 248.245 279.198 247.894 279.198 247.497C279.198 247.1 279.062 246.749 278.79 246.443C278.518 246.126 278.127 245.967 277.617 245.967C277.118 245.967 276.699 246.097 276.359 246.358C276.019 246.619 275.849 246.97 275.849 247.412C275.849 247.854 275.934 248.211 276.104 248.483C276.285 248.755 276.557 249.05 276.92 249.367C277.283 249.684 277.538 249.854 277.685 249.877ZM310.329 255.589L311.06 255.504C311.4 255.504 311.57 255.606 311.57 255.81C311.57 256.275 311.485 256.592 311.315 256.762C311.145 256.921 310.856 257 310.448 257H305.535C305.037 257 304.787 256.96 304.787 256.881C304.787 256.802 305.139 256.229 305.841 255.164C306.555 254.087 307.286 252.858 308.034 251.475C308.782 250.081 309.156 249.067 309.156 248.432C309.156 247.797 308.986 247.293 308.646 246.919C308.306 246.545 307.881 246.358 307.371 246.358C306.861 246.358 306.153 246.562 305.246 246.97C305.235 246.981 305.195 246.959 305.127 246.902C304.935 246.721 304.838 246.5 304.838 246.239C304.838 245.91 305.178 245.604 305.858 245.321C306.55 245.038 307.167 244.896 307.711 244.896C308.697 244.896 309.44 245.157 309.938 245.678C310.448 246.188 310.703 246.857 310.703 247.684C310.703 248.5 310.46 249.418 309.972 250.438C309.496 251.447 308.896 252.506 308.17 253.617C307.445 254.728 307.037 255.374 306.946 255.555C307.082 255.578 307.643 255.589 308.629 255.589H310.329ZM320.866 257.323C320.821 257.357 320.742 257.374 320.628 257.374C320.515 257.374 320.362 257.283 320.169 257.102C319.988 256.921 319.897 256.785 319.897 256.694C319.897 256.603 319.914 256.541 319.948 256.507C322.147 254.58 323.246 252.637 323.246 250.676C322.408 251.458 321.495 251.849 320.509 251.849C319.523 251.849 318.736 251.537 318.146 250.914C317.568 250.279 317.279 249.469 317.279 248.483C317.279 247.644 317.546 246.857 318.078 246.12C318.339 245.757 318.707 245.463 319.183 245.236C319.659 245.009 320.209 244.896 320.832 244.896C322.102 244.896 323.093 245.327 323.807 246.188C324.533 247.038 324.895 248.211 324.895 249.707C324.895 251.192 324.51 252.625 323.739 254.008C322.98 255.391 322.022 256.496 320.866 257.323ZM320.73 250.591C321.206 250.591 321.654 250.472 322.073 250.234C322.493 249.985 322.765 249.735 322.889 249.486C323.025 249.225 323.093 248.976 323.093 248.738C323.093 247.99 322.878 247.372 322.447 246.885C322.028 246.398 321.484 246.154 320.815 246.154C320.147 246.154 319.603 246.369 319.183 246.8C318.775 247.231 318.571 247.763 318.571 248.398C318.571 249.033 318.753 249.56 319.115 249.979C319.489 250.387 320.028 250.591 320.73 250.591Z" fill="#BA9845"/>
<path d="M27.462 305.629C27.2353 305.629 27.0427 305.544 26.884 305.374C26.7367 305.215 26.663 305.074 26.663 304.949C26.663 304.824 26.6743 304.717 26.697 304.626C29.3943 304.535 30.743 303.481 30.743 301.464C30.743 300.41 30.2047 299.645 29.128 299.169C28.6747 298.965 28.4423 298.806 28.431 298.693C28.533 298.534 28.754 298.251 29.094 297.843C29.4453 297.435 29.723 297.044 29.927 296.67C30.1423 296.296 30.25 295.899 30.25 295.48C30.25 295.061 30.1027 294.715 29.808 294.443C29.5133 294.171 29.0827 294.035 28.516 294.035C28.3233 294.035 28.0003 294.092 27.547 294.205C27.0937 294.318 26.833 294.375 26.765 294.375C26.697 294.375 26.5893 294.324 26.442 294.222C26.306 294.109 26.238 293.995 26.238 293.882C26.238 293.689 26.527 293.485 27.105 293.27C27.6943 293.043 28.2893 292.93 28.89 292.93C29.8193 292.93 30.5617 293.123 31.117 293.508C31.6723 293.882 31.95 294.403 31.95 295.072C31.95 295.469 31.8537 295.877 31.661 296.296C31.4683 296.704 31.2643 297.033 31.049 297.282C30.8337 297.52 30.607 297.752 30.369 297.979L30.012 298.319C30.012 298.387 30.0573 298.449 30.148 298.506C30.25 298.563 30.335 298.608 30.403 298.642C31.015 298.948 31.5023 299.356 31.865 299.866C32.239 300.365 32.426 300.943 32.426 301.6C32.426 302.858 31.9443 303.833 30.981 304.524C30.029 305.215 28.856 305.584 27.462 305.629ZM41.0847 304.354C40.3934 303.787 39.8834 303.056 39.5547 302.161C39.2374 301.266 39.0787 300.359 39.0787 299.441C39.0787 298.523 39.1524 297.718 39.2997 297.027C39.4584 296.324 39.702 295.656 40.0307 295.021C40.3707 294.375 40.8524 293.859 41.4757 293.474C42.099 293.089 42.8357 292.896 43.6857 292.896C44.9437 292.896 45.9637 293.44 46.7457 294.528C47.539 295.605 47.9357 297.106 47.9357 299.033C47.9357 300.96 47.5334 302.473 46.7287 303.572C45.924 304.66 44.8587 305.204 43.5327 305.204C42.592 305.204 41.776 304.921 41.0847 304.354ZM43.7707 294.205C42.8074 294.205 42.065 294.624 41.5437 295.463C41.0224 296.302 40.7617 297.452 40.7617 298.914C40.7617 300.365 41.0224 301.549 41.5437 302.467C42.065 303.374 42.7734 303.827 43.6687 303.827C44.5754 303.827 45.2837 303.374 45.7937 302.467C46.315 301.549 46.5757 300.387 46.5757 298.982C46.5757 297.577 46.3037 296.432 45.7597 295.548C45.227 294.653 44.564 294.205 43.7707 294.205Z" fill="#BA9845"/>
<path d="M279.545 231C275.536 231 272.05 233.115 270 236.66C267.95 233.115 264.464 231 260.455 231C257.418 231.004 254.506 232.418 252.359 234.93C250.211 237.443 249.004 240.849 249 244.402C249 250.925 252.475 257.713 259.328 264.575C262.469 267.707 265.861 270.475 269.458 272.84C269.625 272.945 269.811 273 270 273C270.189 273 270.375 272.945 270.542 272.84C274.139 270.475 277.531 267.707 280.672 264.575C287.525 257.713 291 250.925 291 244.402C290.996 240.849 289.789 237.443 287.641 234.93C285.494 232.418 282.582 231.004 279.545 231ZM270 270.115C266.867 268 251.291 256.849 251.291 244.402C251.293 241.56 252.26 238.834 253.978 236.824C255.696 234.814 258.025 233.683 260.455 233.68C264.326 233.68 267.577 236.1 268.94 239.995C269.027 240.241 269.174 240.451 269.362 240.599C269.551 240.747 269.773 240.826 270 240.826C270.227 240.826 270.449 240.747 270.638 240.599C270.826 240.451 270.973 240.241 271.06 239.995C272.423 236.1 275.674 233.68 279.545 233.68C281.975 233.683 284.304 234.814 286.022 236.824C287.74 238.834 288.707 241.56 288.709 244.402C288.709 256.849 273.133 268 270 270.115Z" fill="#D5B065"/>
<path d="M281.742 226.071C282.406 225.945 283.086 225.987 283.733 226.192C284.38 226.398 284.978 226.762 285.482 227.258L285.509 227.285L285.535 227.26C286.015 226.792 286.581 226.442 287.192 226.235C287.804 226.029 288.449 225.969 289.083 226.061L289.267 226.091C290.067 226.244 290.814 226.635 291.43 227.221C292.046 227.808 292.507 228.569 292.766 229.423C293.024 230.277 293.07 231.193 292.898 232.074C292.726 232.954 292.343 233.767 291.789 234.426L291.654 234.58L291.618 234.614L286.033 240.759C285.904 240.901 285.734 240.986 285.553 240.998C285.372 241.011 285.193 240.95 285.049 240.827L284.978 240.759L279.361 234.578C278.766 233.935 278.343 233.121 278.139 232.227C277.934 231.333 277.956 230.394 278.203 229.513C278.449 228.632 278.91 227.845 279.535 227.237C280.16 226.63 280.924 226.226 281.742 226.071Z" fill="#D5B065"/>
</svg>
