<svg width="8" height="7" viewBox="0 0 8 7" fill="none" xmlns="http://www.w3.org/2000/svg">
<path d="M4 0.4375C2.61984 0.4375 1.5 1.31947 1.5 2.40625C1.5 4.15625 4 6.5625 4 6.5625C4 6.5625 6.5 4.15625 6.5 2.40625C6.5 1.31947 5.38016 0.4375 4 0.4375ZM4 3.5C3.80222 3.5 3.60888 3.44868 3.44443 3.35254C3.27998 3.25639 3.15181 3.11973 3.07612 2.95985C3.00043 2.79996 2.98063 2.62403 3.01921 2.4543C3.0578 2.28456 3.15304 2.12865 3.29289 2.00628C3.43275 1.88391 3.61093 1.80057 3.80491 1.76681C3.99889 1.73305 4.19996 1.75038 4.38268 1.81661C4.56541 1.88283 4.72159 1.99498 4.83147 2.13888C4.94135 2.28277 5 2.45194 5 2.625C4.99971 2.85699 4.89426 3.0794 4.70679 3.24344C4.51931 3.40748 4.26513 3.49975 4 3.5Z" fill="white"/>
</svg>
