<svg width="191" height="191" viewBox="0 0 191 191" fill="none" xmlns="http://www.w3.org/2000/svg">
<path fill-rule="evenodd" clip-rule="evenodd" d="M67.3789 60.4735L64.367 69.7885H55.0962C50.2254 69.7885 45.554 71.7234 42.1099 75.1676C38.6657 78.6117 36.7308 83.283 36.7308 88.1538V132.231C36.7308 134.643 37.2058 137.031 38.1288 139.259C39.0517 141.487 40.4045 143.512 42.1099 145.217C43.8153 146.922 45.8398 148.275 48.068 149.198C50.2962 150.121 52.6844 150.596 55.0962 150.596H135.904C138.316 150.596 140.704 150.121 142.932 149.198C145.16 148.275 147.185 146.922 148.89 145.217C150.596 143.512 151.948 141.487 152.871 139.259C153.794 137.031 154.269 134.643 154.269 132.231V88.1538C154.269 83.283 152.334 78.6117 148.89 75.1676C145.446 71.7234 140.775 69.7885 135.904 69.7885H126.626L123.621 60.4735C122.427 56.7759 120.092 53.5522 116.95 51.2659C113.809 48.9796 110.023 47.7486 106.137 47.75H84.8554C80.9699 47.7486 77.1841 48.9796 74.0425 51.2659C70.9008 53.5522 68.5652 56.7759 67.3716 60.4735M55.0962 77.1346H69.715L74.3651 62.7362C75.0803 60.5165 76.4812 58.5809 78.3663 57.2081C80.2514 55.8352 82.5234 55.0957 84.8554 55.0962H106.145C108.475 55.0973 110.746 55.8374 112.629 57.2102C114.513 58.583 115.913 60.5177 116.628 62.7362L121.278 77.1346H135.904C138.826 77.1346 141.629 78.2956 143.696 80.3621C145.762 82.4286 146.923 85.2314 146.923 88.1538V132.231C146.923 135.153 145.762 137.956 143.696 140.023C141.629 142.089 138.826 143.25 135.904 143.25H55.0962C52.1737 143.25 49.3709 142.089 47.3044 140.023C45.2379 137.956 44.0769 135.153 44.0769 132.231V88.1538C44.0769 85.2314 45.2379 82.4286 47.3044 80.3621C49.3709 78.2956 52.1737 77.1346 55.0962 77.1346Z" fill="#726851"/>
<path fill-rule="evenodd" clip-rule="evenodd" d="M73.4615 106.519C73.4615 112.364 75.7834 117.97 79.9165 122.103C84.0495 126.236 89.655 128.558 95.5 128.558C101.345 128.558 106.951 126.236 111.084 122.103C115.217 117.97 117.538 112.364 117.538 106.519C117.538 100.674 115.217 95.0687 111.084 90.9357C106.951 86.8027 101.345 84.4808 95.5 84.4808C89.655 84.4808 84.0495 86.8027 79.9165 90.9357C75.7834 95.0687 73.4615 100.674 73.4615 106.519ZM110.192 106.519C110.192 110.416 108.644 114.153 105.889 116.908C103.134 119.664 99.3967 121.212 95.5 121.212C91.6034 121.212 87.8663 119.664 85.111 116.908C82.3556 114.153 80.8077 110.416 80.8077 106.519C80.8077 102.623 82.3556 98.8855 85.111 96.1302C87.8663 93.3749 91.6034 91.8269 95.5 91.8269C99.3967 91.8269 103.134 93.3749 105.889 96.1302C108.644 98.8855 110.192 102.623 110.192 106.519Z" fill="#726851"/>
<path d="M30.4865 35.8345C29.7783 35.1253 29.3808 34.1639 29.3815 33.1616C29.3822 32.1594 29.781 31.1984 30.4902 30.4902C31.1994 29.782 32.1609 29.3845 33.1631 29.3852C34.1654 29.3859 35.1263 29.7847 35.8345 30.4939L160.506 155.165C161.214 155.874 161.612 156.834 161.612 157.836C161.612 158.837 161.214 159.798 160.506 160.506C159.798 161.214 158.837 161.612 157.836 161.612C156.834 161.612 155.874 161.214 155.165 160.506L30.4865 35.8345Z" fill="#726851"/>
<path fill-rule="evenodd" clip-rule="evenodd" d="M95.5 179.981C142.155 179.981 179.981 142.155 179.981 95.5C179.981 48.8446 142.155 11.0192 95.5 11.0192C48.8446 11.0192 11.0192 48.8446 11.0192 95.5C11.0192 142.155 48.8446 179.981 95.5 179.981ZM95.5 187.327C146.218 187.327 187.327 146.218 187.327 95.5C187.327 44.7821 146.218 3.67307 95.5 3.67307C44.7822 3.67307 3.67308 44.7821 3.67308 95.5C3.67308 146.218 44.7822 187.327 95.5 187.327Z" fill="#726851"/>
</svg>
